<?xml version="1.0" encoding="UTF-8"?>
<svg xmlns="http://www.w3.org/2000/svg" viewBox="0 0 900 270" width="900" height="270">
<defs><marker id="arrow" markerWidth="10" markerHeight="10" refX="9" refY="3" orient="auto"><path d="M0,0 L0,6 L9,3 z" fill="#374151"/></marker></defs>
<style>text { font-family: system-ui, sans-serif; font-size: 11px; fill: #333; } .title { font-weight: bold; } .banner { font-size: 11px; fill: #f9fafb; }</style>
<line x1="180" y1="105" x2="260" y2="105" stroke="#374151" stroke-width="1.5" marker-end="url(#arrow)"/>
<line x1="420" y1="110" x2="520" y2="75" stroke="#374151" stroke-width="1.5" marker-end="url(#arrow)"/>
<line x1="700" y1="75" x2="720" y2="105" stroke="#374151" stroke-width="1.5" marker-end="url(#arrow)"/>
<line x1="700" y1="100" x2="720" y2="170" stroke="#374151" stroke-width="1.5" marker-end="url(#arrow)"/>
<rect x="40" y="80" width="140" height="50" rx="6" fill="#dae8fc" stroke="#6c8ebf" stroke-width="1.5"/>
<text x="110.0" y="96" text-anchor="middle" class="title">ClaudeSec Scanner</text>
<text x="110.0" y="110" text-anchor="middle" class="">(CLI)</text>
<rect x="260" y="40" width="160" height="140" rx="6" fill="#dae8fc" stroke="#6c8ebf" stroke-width="1.5"/>
<text x="340.0" y="56" text-anchor="middle" class="title">Scan Categories</text>
<text x="340.0" y="70" text-anchor="middle" class="">infra</text>
<text x="340.0" y="84" text-anchor="middle" class="">ai</text>
<text x="340.0" y="98" text-anchor="middle" class="">network</text>
<text x="340.0" y="112" text-anchor="middle" class="">cloud</text>
<text x="340.0" y="126" text-anchor="middle" class="">access-control</text>
<text x="340.0" y="140" text-anchor="middle" class="">cicd</text>
<text x="340.0" y="154" text-anchor="middle" class="">code</text>
<text x="340.0" y="168" text-anchor="middle" class="">...</text>
<rect x="520" y="50" width="220" height="64" rx="6" fill="#fff2cc" stroke="#d6b656" stroke-width="1.5"/>
<text x="630.0" y="66" text-anchor="middle" class="title">Scan Results</text>
<text x="630.0" y="80" text-anchor="middle" class="">Total:40 Failed:2 Warn:3</text>
<text x="630.0" y="94" text-anchor="middle" class="">Score:84% Grade:B  Crit:0 High:2</text>
<rect x="520" y="120" width="140" height="40" rx="6" fill="#fff2cc" stroke="#d6b656" stroke-width="1.5"/>
<text x="590.0" y="136" text-anchor="middle" class="title">scan-report.json</text>
<text x="590.0" y="150" text-anchor="middle" class="">(results)</text>
<rect x="520" y="190" width="200" height="56" rx="6" fill="#fff2cc" stroke="#d6b656" stroke-width="1.5"/>
<text x="620.0" y="206" text-anchor="middle" class="title">Prowler OCSF</text>
<text x="620.0" y="220" text-anchor="middle" class="">Fail:6955 (aws, github, iac, kubernetes)</text>
<rect x="720" y="80" width="120" height="50" rx="6" fill="#e1d5e7" stroke="#9673a6" stroke-width="1.5"/>
<text x="780.0" y="96" text-anchor="middle" class="title">Dashboard</text>
<text x="780.0" y="110" text-anchor="middle" class="">(HTML)</text>
<rect x="720" y="150" width="160" height="40" rx="6" fill="#e1d5e7" stroke="#9673a6" stroke-width="1.5"/>
<text x="800.0" y="166" text-anchor="middle" class="title">History</text>
<text x="800.0" y="180" text-anchor="middle" class="">(30 entries)</text>
<rect x="40" y="10" width="840" height="26" rx="6" fill="#111827" stroke="#111827" stroke-width="1.5"/>
<text x="460.0" y="26" text-anchor="middle" class="banner">Top categories: cicd:2, code:2, access-control:1</text>
</svg>